<svg xmlns="http://www.w3.org/2000/svg" xmlns:xlink="http://www.w3.org/1999/xlink" width="24" height="24" viewBox="0 0 24 24">
    <defs>
        <path id="a" d="M12 0C5.373 0 0 5.373 0 12s5.373 12 12 12 12-5.373 12-12S18.627 0 12 0zm.87 19.218c-.286.262-.66.406-1.047.402a1.584 1.584 0 0 1-1.073-.397c-.305-.265-.458-.636-.458-1.112 0-.423.147-.779.442-1.067a1.496 1.496 0 0 1 1.088-.433c.422 0 .778.145 1.067.433.288.288.432.644.432 1.067.001.47-.15.839-.451 1.107zM16.628 9.9c-.217.41-.495.785-.825 1.112-.318.312-.89.837-1.716 1.575a7.008 7.008 0 0 0-.548.549c-.12.131-.222.276-.307.432a2.122 2.122 0 0 0-.156.393c-.038.131-.093.361-.166.69-.128.697-.527 1.046-1.198 1.046-.349 0-.642-.114-.88-.342-.238-.229-.358-.567-.358-1.017 0-.564.088-1.052.262-1.464.166-.4.401-.768.694-1.087.289-.312.678-.683 1.168-1.112.429-.376.74-.66.932-.85.19-.19.352-.405.483-.64.13-.233.199-.497.197-.764 0-.537-.2-.99-.599-1.36-.399-.368-.914-.552-1.544-.552-.738 0-1.282.186-1.63.558-.35.372-.645.92-.886 1.645-.228.758-.661 1.138-1.299 1.138-.376 0-.693-.133-.95-.398-.258-.265-.388-.552-.39-.861 0-.638.205-1.283.614-1.938.41-.654 1.006-1.196 1.792-1.625.785-.43 1.7-.644 2.747-.644.972 0 1.831.18 2.576.539.745.359 1.32.847 1.726 1.464.406.617.609 1.288.609 2.013 0 .57-.116 1.07-.348 1.499V9.9z"/>
    </defs>
    <g fill="none" fill-rule="evenodd">
        <mask id="b" fill="#fff">
            <use xlink:href="#a"/>
        </mask>
        <g fill="#000" mask="url(#b)">
            <path d="M0 0h24v24H0z"/>
        </g>
    </g>
</svg>
