<svg xmlns="http://www.w3.org/2000/svg" xmlns:xlink="http://www.w3.org/1999/xlink" width="24" height="24" viewBox="0 0 24 24">
    <defs>
        <path id="a" d="M21.176 7.765h-.588C19.28 3.227 15.928 0 12 0 8.072 0 4.72 3.227 3.412 7.765h-.588A2.824 2.824 0 0 0 0 10.588v2.824a2.824 2.824 0 0 0 2.824 2.823h.588C4.72 20.773 8.072 24 12 24c3.928 0 7.28-3.227 8.588-7.765h.588A2.824 2.824 0 0 0 24 13.412v-2.824a2.824 2.824 0 0 0-2.824-2.823zm-2.064 8.47c-.155.482-.34.953-.553 1.412h-4.562a2.118 2.118 0 1 0 0 1.412h3.775c-.13.195-.264.385-.405.569-.723.946-1.557 1.684-2.479 2.194a5.912 5.912 0 0 1-2.888.766 5.917 5.917 0 0 1-2.888-.766c-.92-.509-1.756-1.248-2.48-2.194-.744-.975-1.331-2.116-1.744-3.392A13.742 13.742 0 0 1 4.235 12c0-1.472.22-2.898.653-4.235.114-.354.242-.697.383-1.03a.966.966 0 0 1 1.025-.578c1.095.156 3.058.755 5.704 2.85 3.204 2.537 6.607 1.838 7.657 1.234.072.584.108 1.171.108 1.759 0 1.472-.22 2.898-.653 4.235z"/>
    </defs>
    <g fill="none" fill-rule="evenodd">
        <mask id="b" fill="#fff">
            <use xlink:href="#a"/>
        </mask>
        <g fill="#000" mask="url(#b)">
            <path d="M0 0h24v24H0z"/>
        </g>
    </g>
</svg>
