<svg xmlns="http://www.w3.org/2000/svg" xmlns:xlink="http://www.w3.org/1999/xlink" width="47" height="57" viewBox="0 0 47 57">
    <defs>
        <path id="a" d="M.002.078h40.156V3.98H.002z"/>
    </defs>
    <g fill="none" fill-rule="evenodd">
        <path fill="#01B877" d="M29.998 36.513c-.112.437-.02.878-.02 1.316 0 .808.05 1.616.058 2.425.002.28.069.52.248.732.133.159.263.319.39.482.653.836 1.426 1.109 2.531.87 2.303-.495 4.63-.904 6.994-1.014a8.48 8.48 0 0 1 1.422.065c.862.106 1.406.575 1.695 1.362.36.98.323 1.998.239 3.01-.076.924-.265 1.832-.482 2.733-.07.402-.313.684-.63.924-1.164.88-2.484 1.477-3.809 2.067-.228.101-.452.214-.678.321-.59.103-1.181.184-1.78.05-.385-.087-.78-.13-1.165-.217-.209-.163-.036-.285.058-.395.17-.198.357-.381.456-.512a13.42 13.42 0 0 1-6.098 2.712c-.773.132-1.562.226-2.234.686-.134.092-.277.173-.348.33-.303.244-.691.349-.991.6-.517.159-1.055.173-1.587.212-1.745.127-3.486.312-5.246.165-.902-.075-1.81-.093-2.709-.208-.293-.038-.594-.042-.868-.173-.12-.123-.028-.174.08-.21.184-.06.38-.012.603-.052-.403-.226-.813-.385-1.142-.674-.246-.378-.672-.475-1.05-.629a7.517 7.517 0 0 1-2.46-1.638c-.748-.737-1.486-1.481-2.143-2.31.468.887.989 1.73 1.662 2.476.4.444.892.771 1.381 1.106.11.076.336.105.227.337-.485.047-.935-.11-1.38-.26-.457-.154-.888-.381-1.36-.498.004-.207-.155-.299-.29-.41-.587-.488-1.293-.767-1.962-1.11-.234-.119-.482-.223-.606-.465.067.198.174.392.295.582.059.092.161.19.043.31-.368.055-.726.308-1.11.059-1.337-.838-2.524-1.854-3.654-2.948-.828-.8-1.11-1.728-.941-2.842.2-1.31.69-2.485 1.543-3.508.173.112.194.292.196.468.008.773.545 1.281.94 1.86.079.116.198.143.268-.025.131-.312.28-.173.42-.014.207.236.338.183.432-.093.063-.185.157-.323.39-.208.189.092.316.04.364-.17.045-.196.136-.278.346-.171.264.135.35-.015.36-.252a2.142 2.142 0 0 0-.04-.571 2.41 2.41 0 0 1-.04-.704c.055-.775.496-1.095 1.401-1.023 1.075.242 2.078.688 3.109 1.055.753.268 1.504.539 2.272.765.62.182 1.167.127 1.665-.297.157-.133.328-.25.486-.383.736-.622 1.22-1.274 1.081-2.369-.15-1.183-.034-2.4-.126-3.601.057-.943-.091-1.879-.093-2.82-.001-.256-.093-.49-.186-.722a877.818 877.818 0 0 0-2.414-5.938c-.08-.199-.219-.393-.137-.63-.224-.659-.225-.662.37-1.03 1.42-.877 2.829-1.772 4.33-2.512.131-.065.272-.113.408-.17.212.13.236.364.315.566.763 1.95 1.549 3.888 2.707 5.65.114.174.214.365.376.492.537.421.635 1.009.636 1.623.001 2 .192 3.994.188 5.993 0 .216-.007.441.164.663.146-.176.107-.37.107-.546.003-1.986.002-3.973.002-5.959 0-.25.013-.499.037-.748.042-.424.194-.774.486-1.104.456-.515.711-1.149.893-1.808.352-1.273.47-2.572.461-3.887-.002-.243-.066-.505.119-.72 1.97.888 3.939 1.776 5.907 2.668.179.08.418.127.355.417.109.222.01.434-.042.644-.523 2.068-1.038 4.138-1.568 6.204-.08.317-.089.63-.082.957.02.864.1 1.73-.045 2.591"/>
        <g transform="translate(6.725 52.45)">
            <mask id="b" fill="#fff">
                <use xlink:href="#a"/>
            </mask>
            <path fill="#D5D5D5" d="M8.668 2.486c.806.203 1.635.248 2.456.312 2.623.203 5.237.051 7.844-.26.087-.01.17-.05.254-.075.547-.211 1.12-.14 1.673-.088 1.005.094 2.015.093 3.02.129.948.034 1.84.318 2.769.42.811.09 1.627.106 2.438.195.105.012.236.017.291-.072.326-.53.95-.842 1.107-1.497.037-.155.213-.194.324-.287.163-.136.282-.302.113-.488-.257-.284-.132-.43.154-.546.133-.054.237-.188.405-.14 2.487.21 4.98.377 7.413.977.3.074.59.194.877.31.18.072.362.172.352.406-.01.22-.182.338-.355.418a6.13 6.13 0 0 1-1.394.44c-1.813.353-3.643.58-5.486.724a162.39 162.39 0 0 1-5.711.364c-1.732.074-3.465.105-5.197.175-2.999.122-5.997.062-8.996.056-2.044-.004-4.088-.09-6.131-.172a86.414 86.414 0 0 1-4.428-.27C1.64 3.44.806 3.466.002 3.251c.094-.233.31-.197.493-.202a18.583 18.583 0 0 0 3.474-.453c.756-.167 1.534-.074 2.301-.157.615-.068 1.243.008 1.862-.087.185-.028.389-.035.536.133" mask="url(#b)"/>
        </g>
        <path fill="#7C5346" d="M15.393 54.935c-2.139.08-4.282.09-6.39.54-.53.113-1.088.095-1.633.144-.215.02-.443-.053-.644.082-.172-.015-.337.188-.514.016-.245-.326-.574-.574-.837-.892-.258-.31-.384-.716-.74-.963-.381-.265-.314-.644.11-.885-.062-.153-.235-.147-.343-.236-.194-.16-.318-.35-.256-.607.06-.248.27-.346.494-.375.202-.027.42-.036.614.014.348.091.664.044.978-.104.39.067.751-.15 1.138-.115.029-.01.064-.024.086-.01.76.456 1.584.772 2.409 1.088.949.174 1.787.729 2.77.787.432-.071.8.17 1.202.247.414.079.864.079 1.203.393.453.26.906.518 1.36.777l-.013.1h-.994zM38.24 52.538a1.187 1.187 0 0 1-.664.379c.143.177.442.25.358.539a.689.689 0 0 1-.48.481l-.125.044c.209.438-.322.492-.386.729-.077.284-.192.4-.439.455-.147.032-.12.138-.13.238-.024.265-.204.369-.434.32-.874-.182-1.776-.069-2.647-.257-2.424-.522-4.89-.471-7.346-.554.22-.298.599-.32.884-.505.563-.494 1.275-.531 1.96-.563 2.093-.097 3.966-.747 5.602-2.052.157-.125.3-.297.541-.24.279.034.559.059.835.103.522.085 1.034.239 1.576.096a.974.974 0 0 1 .612.055c.394.13.333.433.284.732"/>
        <path fill="#D5D5D5" d="M4.745 52.977c-.398.392-.35.692.17.94.114.054.23.055.12.22-.026.037-.015.148.013.163.362.19.37.714.789.833.318.09.117.476.375.584l-4.463-.626c-.24-.223-.581-.19-.85-.337-.25-.137-.645-.174-.626-.531.017-.333.384-.417.654-.516.751-.277 1.538-.42 2.325-.544.495-.078.987-.191 1.493-.186"/>
        <path fill="#FFF" d="M27.24 10.674a.851.851 0 0 0-.147-.126c-.148-.08-.308-.057-.465-.05.01 1.141.035 2.284-.074 3.423l.173.006.363-.167a.958.958 0 0 0 .153-.138c.431-.982.429-1.965-.003-2.948" opacity=".6"/>
        <path fill="#FFF" d="M27.889 10.66c-.222-.121-.468-.088-.705-.112.02.042.037.084.056.126.432.983.434 1.966.003 2.948-.02.046-.04.092-.062.138.5-.105.77-.44.938-.894.285-.775.05-1.492-.23-2.207" opacity=".6"/>
        <path fill="#000" d="M16.939 10.503c-.528-1.744-1.04-3.494-1.593-5.23-.233-.733-.092-1.295.47-1.827 1.342-1.269 2.752-2.428 4.52-3.073 3.013-1.099 5.38.358 6.652 2.696.362.666.32 1.43.31 2.161-.017 1.458-.203 2.902-.473 4.334-.056.294.039.379.332.396.398.023.792.112 1.189.163.238.03.416.113.353.388-.06.262-.258.235-.46.177-.056-.016-.117-.01-.176-.014a.32.32 0 0 1-.197.063c-.227-.036-.457-.046-.683-.084a1.742 1.742 0 0 0-.473-.049c-1.1-.09-2.093.203-2.992.829a.68.68 0 0 1-.142.039 4.712 4.712 0 0 1-.744.01 1.063 1.063 0 0 1-.217-.034c-.17-.05-.345-.094-.5-.174-1.144-.594-2.303-.491-3.472-.093a2.124 2.124 0 0 0-.241.106c-.249.163-.467.128-.66-.096a1.544 1.544 0 0 0-.565-.405c-.13-.057-.22-.138-.238-.283"/>
        <path fill="#B7EAD5" d="M13.874 26.529c.937 2.299 1.888 4.591 2.798 6.9.216.546.06 1.162.134 1.745.06.477.012.968.013 1.452-.097.139-.244.209-.39.281-1.283.639-2.579 1.252-3.747 2.092-.119.086-.247.167-.408.14-.157-.076-.238-.222-.316-.361-1.22-2.189-2.476-4.358-3.685-6.553-.062-.113-.158-.221-.103-.368 1.573-1.482 3.146-2.965 4.722-4.444.32-.301.655-.59.982-.884"/>
        <path fill="#7C5346" d="M36.057 28.597c.348-1.822.514-3.661.603-5.513.047-1 .06-1.995-.022-2.993-.032-.385-.146-.675-.487-.92-1.258-.908-1.312-1.583-.862-3.176.084-.295.28-.547.62-.557.294-.008.289-.163.283-.37-.03-.94-.145-1.88-.073-2.82.045-.584.034-1.179.243-1.74.072-.191.134-.414.424-.342.282.07.498.19.45.54-.146 1.07-.063 2.145-.064 3.218 0 .225.016.443.175.622-.412.236-.685.52-.548 1.06.054.213-.017.23.188.372.182.125.374.236.548.372.13.101.26.216.192.404-.06.166-.203.246-.374.27a1.718 1.718 0 0 1-.943-.135c.493.53 1.297.26 1.631-.478.159-.185.217-.443.463-.568.265-.135.52-.204.844-.007-.534-.349-.909-.247-1.145.265-.048.104-.058.229-.158.308-.499-.116-.61-.323-.363-.727.18-.296.397-.568.684-.618-.31.02-.618.179-.77.587-.063.17-.095.398-.373.342-.27-.054-.408-.227-.407-.496.002-.44.227-.744.612-.943.666.055 1.276.305 1.831.636.509.303.518.866.457 1.389-.103.883-.34 1.75-.805 2.503-.399.646-.407 1.269-.304 1.966.432 2.915.613 5.848.502 8.793a10.92 10.92 0 0 1-.294 2.046c-.175.756-.601 1.187-1.386 1.259a.503.503 0 0 1-.324.153c-.323.016-.647.04-.965-.047-.34-.092-.625-.256-.75-.61-.108-.4.017-.792.07-1.18.108-.816.258-1.627.402-2.439.028-.157.036-.326.195-.426M16.939 10.503c.357.234.758.404 1.03.76.127.167.495-.158.626-.17.14.143-.14.441-.134.613.01.292-.012.585.02.877.071.64.352 1.11 1.037 1.25.719.173 1.432.336 2.183.16.46-.107.794-.303.89-.79.134-.407.074-.828.09-1.243.007-.198-.04-.408.114-.578l.811-.01c.211.449.115.945.221 1.41.258.933.6 1.184 1.583 1.21.41.012.824-.076 1.23.046-.167 1.1-.364 2.19-.792 3.227-.443 1.074-1.054 2.025-1.993 2.745-.068.052-.118.128-.176.193-.12.115-.27.12-.414.087-.872-.2-1.61-.618-2.164-1.33a17.123 17.123 0 0 1-2.555-3.854c-.044-.09-.08-.205-.224-.14-.521.237-.822-.108-1-.47-.532-1.088-.736-2.253-.676-3.464.012-.232.243-.328.293-.53"/>
        <path fill="#B7EAD5" d="M29.998 36.513c-.129-.713.003-1.438-.084-2.15-.14-1.148.302-2.189.56-3.261.4-1.667.839-3.324 1.261-4.985l3.462 2.022c-.305 1.927-.672 3.843-1.001 5.766-.218 1.272-.448 2.542-.667 3.814-.038.226-.023.475-.207.658a58.61 58.61 0 0 1-3.324-1.864"/>
        <path fill="#7C5346" d="M8.171 41.55c-.32.06-.683-.19-.962.213-.304.44-.323.895-.251 1.385.027.188.052.377.058.566.005.185.051.395-.172.504-.22.108-.347-.076-.5-.192-.087.633-.215.694-.706.358-.177.174-.022.552-.323.614-.3.063-.361-.29-.544-.436-.103.038-.062.123-.072.185-.02.122-.045.238-.187.267-.13.027-.18-.086-.235-.166-.462-.67-1.082-1.266-1.032-2.176.006-.099-.042-.2-.065-.3l.05-.702c.023-.314.223-.443.461-.646.465-.395 1.017-.534 1.527-.789.202-.1.116-.284.118-.43.013-1.22.1-2.428.41-3.616.235-.91.612-1.744 1.205-2.478.108-.271.282-.266.486-.11.178.136.305.318.42.506.552.903 1.047 1.832 1.307 2.866a.714.714 0 0 1-.118.418c-.54.937-.917 1.945-1.312 2.947-.126.321-.101.556.168.78.13.11.285.224.27.433"/>
        <path fill="#FFF7AE" d="M25.473 23.031c0 1.294.004 2.588-.262 3.863-.231 1.106-.581 2.154-1.405 2.994-.27.276-.175.67-.18 1.008-.03 2.206-.036 4.412-.05 6.619-.001.103 0 .206-.005.308-.007.154-.106.194-.242.191-.134-.002-.176-.076-.182-.196-.01-.19-.037-.38-.045-.57-.09-2.261-.18-4.522-.267-6.783-.006-.162.005-.316-.144-.44-.63-.52-1.023-1.22-1.399-1.919-.913-1.7-1.713-3.452-2.31-5.288.332-.16.67-.29 1.053-.219.435 1.388.871 2.776 1.419 4.126.354.872.72 1.742 1.248 2.527.34.504.552.48.86-.046.533-.913.679-1.931.815-2.953.129-.965.079-1.934.092-2.903.002-.2-.048-.416.127-.582.338-.061.601.123.877.263"/>
        <path fill="#FFD200" d="M24.596 22.768c.014 1.69.058 3.382-.363 5.041-.152.602-.342 1.188-.706 1.7-.275.387-.444.391-.762.032-.366-.415-.603-.909-.833-1.402-.783-1.683-1.374-3.437-1.906-5.211-.035-.115-.085-.222.009-.329l.435-.2c.214.064.276.258.357.426.239.491.52.959.78 1.437.17.311.334.645.611.862.464.361.574.815.537 1.361-.029.425-.025.854.002 1.278.015.24-.147.656.149.676.223.015.115-.421.123-.654.02-.573.012-1.147.005-1.72-.005-.32.077-.592.268-.862.427-.604.565-1.318.703-2.027.04-.199.035-.416.227-.553l.364.145"/>
        <path fill="#FEFEFE" d="M9.071 36.975c-.368-1.1-.828-2.158-1.528-3.096-.144-.193-.3-.443-.592-.168-.33-.372-.258-.653.149-.939.383-.268.715-.607 1.07-.915.806 1.42 1.612 2.84 2.417 4.262.566.999 1.13 1.999 1.694 2.998-.229.493-.707.659-1.16.845-.133.055-.252-.065-.326-.18-.538-.824-1.075-1.65-1.61-2.477-.064-.1-.053-.228-.114-.33M33.322 38.377c.08-1.006.31-1.99.477-2.983.392-2.317.815-4.629 1.222-6.943.023-.13 0-.273.176-.312l.86.458c-.184 1.174-.37 2.347-.55 3.521-.026.173-.02.351-.028.527.104.274.054.554.01.826-.253 1.61-.493 3.22-.74 4.83-.035.235.013.557-.349.633l-1.078-.557"/>
        <path fill="#DEDDDD" d="M34.4 38.934c.356-.463.248-1.032.344-1.55.236-1.272.417-2.553.616-3.83.047-.302.08-.606.119-.909.216.417.601.516 1.029.53.219.009.438.012.657.017.074.144.026.288-.006.43-.35 1.514-.751 3.016-1.1 4.531-.07.304-.187.588-.424.807-.223.205-.49.26-.783.214-.16-.062-.325-.116-.452-.24"/>
        <path fill="#7C5346" d="M23.674 20.908l.125 1.496c.166.274.025.548-.021.812-.086.492-.23.972-.51 1.398-.276.42-.514.455-.9.121-.387-.332-.662-.755-.893-1.197-.235-.45-.554-.87-.62-1.394.333-.734.26-1.515.274-2.286.261.082.347.343.52.513.478.47 1.003.723 1.686.517.109-.033.231-.073.339.02"/>
        <path fill="#FFF7AE" d="M20.855 22.144c.417.703.704 1.482 1.234 2.121.212.257.408.644.767.583.347-.059.44-.475.564-.784.212-.533.298-1.096.379-1.66l.433.219c-.13.722-.242 1.448-.535 2.13-.035.081-.047.185-.106.24-.564.523-.436 1.203-.44 1.853-.001.5-.004 1 .003 1.5.002.201-.022.339-.283.334-.247-.005-.248-.148-.247-.32.002-.751-.008-1.502.005-2.252.006-.28-.054-.475-.293-.674-.582-.482-.869-1.181-1.229-1.822-.224-.397-.425-.808-.637-1.212l.385-.256"/>
        <path fill="#6C382D" d="M23.674 20.908c-1.253.501-2.05-.216-2.545-1.05l-.028-.897c.59.392 1.085.928 1.805 1.12.256.069.505.145.773.122l-.005.705"/>
        <path fill="#FEFDFC" d="M34.852 39.174c1.026-.118 1.061-.95 1.242-1.68.354-1.435.713-2.868 1.07-4.302l.265-.046c-.481 2.104-.964 4.209-1.443 6.313-.043.19-.12.24-.304.136-.27-.152-.553-.282-.83-.421"/>
        <path fill="#6C392E" d="M37.428 14.555c-.141.221-.365.382-.46.642a.871.871 0 0 0-.065.43c.028.2.216.232.36.284.201.07.15-.118.183-.213.222-.615.431-.741 1.247-.677-.343.107-.549.26-.729.454-.428.461-.42.58.093.93l-.001-.002c-.012.643-.456.975-1.078.805-.029-.007-.063-.027-.086-.018-.473.18-.601-.09-.635-.521.323.231.674.294 1.048.267.165-.012.301-.075.352-.222.055-.157-.097-.225-.203-.3-.36-.253-.722-.504-1.081-.758-.022-.015-.03-.05-.049-.084.157-.063.26.113.406.091-.193-.709-.075-.92.616-1.117a.162.162 0 0 1 .082.009"/>
        <path fill="#6FC090" d="M28.496 44.509c-4.55 1.692-9.109 1.292-13.891-.683 1.156.104 2.285.373 3.419.599 1.146.228 2.299.347 3.462.449 1.187.104 2.374.097 3.553.041a23.492 23.492 0 0 0 3.457-.406M34.934 51.552c-.57.37-1.077.827-1.676 1.16a9.54 9.54 0 0 1-4.406 1.237c-.706.022-1.37.209-2.021.458.062-.226.413-.494.812-.653.83-.331 1.725-.378 2.583-.585 2.002-.483 3.806-1.351 5.387-2.665.066-.055.15-.088.314-.181-.28.531-.677.849-.993 1.229M21.665 43.304c2.898-.128 5.673-.716 8.146-2.358-1.25 2.377-6.607 3.245-8.146 2.358M15.04 54.06c-.792-.249-1.64-.294-2.405-.64-1.709-.941-2.73-2.455-3.607-4.248.314.2.463.397.617.6.16.21.368.383.543.583 1.211 1.389 2.504 2.668 4.33 3.258.23.075.424.21.522.446M26.288 44.02c1.818-.945 3.784-1.23 5.792-1.332-1.835.852-3.776 1.259-5.792 1.333"/>
        <path fill="#F8D304" d="M27.967 33.291c-.46 0-.92-.007-1.38.003-.22.006-.285-.088-.279-.29.005-.18.028-.318.26-.317.935.004 1.87.003 2.805.001.257 0 .215.18.224.339.01.18-.051.27-.25.266-.46-.008-.92-.002-1.38-.002"/>
        <path fill="#6FC090" d="M9.865 52.632c-.942-.108-1.731-.565-2.495-1.078-.22-.287-.493-.55-.42-1.04.233.4.6.524.938.688.635.31 1.275.607 1.828 1.056.206.168.233.23.149.374"/>
        <path fill="#7C5346" d="M26.017 9.945c-.9.001-1.713.25-2.439.788-.304.225-.627.108-.92-.052a4.302 4.302 0 0 0-2.39-.536c-.44.029-.881.082-1.307.212-.158.048-.3.045-.238-.159.17-.555-.054-1.068-.141-1.596-.04-.244-.077-.496-.167-.724-.14-.354-.007-.483.33-.584 1.74-.518 3.497-.896 5.329-.788.674.04 1.31.225 1.899.552.544.303.377.877.481 1.336.109.48.125.98.181 1.471-.195.11-.421-.02-.618.08"/>
        <path fill="#8C695E" d="M18.518 11.122c1.166-.459 2.332-.608 3.504-.017.195.098.402.171.604.255.155.095.132.247.13.392-.002.51.031 1.021-.093 1.523-.169.541-.591.716-1.11.793-.63.094-1.239-.016-1.853-.103-.154-.05-.3-.126-.457-.169-.46-.125-.687-.465-.748-.892-.084-.59-.145-1.19.023-1.782M26.644 13.921c-.54.085-1.072.136-1.623.019-.783-.167-1.011-.365-1.149-1.158-.234-.46-.216-.952-.183-1.446.896-.68 1.91-.944 3.029-.839a.444.444 0 0 1 .09.2c.094 1.041.109 2.08-.092 3.113-.009.043-.045.076-.072.111"/>
        <path fill="#4E362D" d="M26.017 10.195c.19-.6.413-.182.618-.316-.187.658-.412.22-.618.316"/>
        <path fill="#6C392E" d="M38.924 16.988c.065.318.005.566-.139.8-.128.209-.282.405-.554.325-.31-.091-.342-.375-.332-.643.003-.108.075-.213.126-.346.223.162.033.62.367.569.298-.046.358-.42.532-.705"/>
        <path fill="#6D3A2F" d="M36.873 17.716c-.202 1.458-.155 1.65.485 2.092-.506-.069-.776-.3-.879-.813-.091-.456-.003-.876.394-1.28"/>
        <path fill="#6C392E" d="M38.057 16.404c.008-.388.107-.733.527-.864.403-.125.645-.012.957.452-.365-.177-.718-.288-1.081-.014-.164.124-.142.406-.404.425l.001.001zM22.353 14.808c.775.246 1.466.265 2.142-.07-.027.468-.412.558-.95.68-.457.103-.918-.14-1.192-.61"/>
        <path fill="#6D3A2F" d="M24.86 16.493c-.732.572-2.224.61-3.051-.037 1.081.241 2.066.276 3.051.037"/>
        <path fill="#6C392E" d="M24.084 17.708c-.544.545-.784.54-1.278-.029.442-.054.814-.07 1.278.03"/>
        <path fill="#6D3A2F" d="M4.342 41.326c.097.915-.16 1.858.287 2.734-.705-.849-.615-1.781-.287-2.734M5.166 41.13c.038.887-.09 1.786.245 2.641-.694-.814-.518-1.724-.245-2.641M6.395 41.067c-.101.876-.32 1.754.023 2.634-.631-.625-.64-1.211-.023-2.634"/>
        <path fill="#1C1711" d="M19.844 9.833c.46-.566 1.216-.51 1.82.16-.634-.183-1.207-.413-1.82-.16M25.185 9.313c-.412.109-.705.37-.87.755.464-.211.89-.476 1.415-.48l.388.002c.094-.015.203.055.301-.074-.365-.365-.802-.317-1.234-.203"/>
        <path fill="#32312C" d="M20.854 12.803l-.19-.025-.068-.013a.514.514 0 0 1-.21-.176.878.878 0 0 1 .009-.868.766.766 0 0 1 .261-.228c.087-.037.18-.033.27-.033.117 0 .218.04.304.116.226.33.222.832-.008 1.166a.397.397 0 0 1-.368.06"/>
        <path fill="#F8F8F8" d="M21.189 12.687c.127-.159.3-.317-.065-.41-.089-.022-.064-.143.011-.16.483-.113.107-.313.056-.479-.033-.042-.03-.082.01-.119.146-.044.273-.03.355.118.57.39.464 1.026-.265 1.15-.094.027-.119-.015-.102-.1"/>
        <path fill="#45413C" d="M21.556 11.637l-.36-.103c-.08-.004-.16-.07-.24-.002l-.289.012c-.077.062-.182.08-.252.153-.455.406-.456.523 0 .931.07.073.172.094.25.153l-.002-.003c-.239.161-.64-.016-.793-.35-.164-.36-.006-.706.424-.929.482-.249 1.062-.185 1.262.138"/>
        <path fill="#8F8F8D" d="M21.221 12.687l.113.248c-.155.306-.316.286-.48.04l.367-.288"/>
        <path fill="#34332F" d="M25.224 12.624l-.285-.01c-.409-.164-.474-.405-.276-1.012.086-.157.24-.183.398-.205a.497.497 0 0 1 .305.077c.211.22.311.774.175 1.01-.068.117-.157.213-.317.14"/>
        <path fill="#FAFAFA" d="M25.224 12.624c.16-.128.522-.21.1-.465-.057-.035-.05-.116.014-.142.48-.192.054-.325-.029-.48-.021-.099.048-.128.122-.154.217-.016.4.062.57.19.37.28.399.66.046.956-.262.22-.565.36-.928.254-.063-.117.131-.067.105-.16"/>
        <path fill="#48443F" d="M25.12 12.783c.202-.04.416-.051.605-.123.254-.097.482-.256.487-.567.005-.314-.21-.47-.473-.57-.11-.042-.228-.06-.342-.088-.12.002-.242-.054-.36.011l-.276.1c-.106.082-.173.24-.353.18-.105-.14.044-.179.11-.226.33-.24.706-.28 1.094-.191.558.127.876.546.74.952-.147.443-.732.69-1.233.522"/>
        <path fill="#F0F0EF" d="M24.408 11.727c.115-.065.197-.195.353-.181-.107.383-.301.78.178 1.067-.227.176-.383-.01-.504-.137-.214-.224-.192-.493-.027-.75"/>
        <path fill="#F0F0F0" d="M20.398 12.717c-.591-.392-.594-.716-.01-1.094.093-.025.12.014.098.1-.161.296-.177.591.012.883.014.08-.021.115-.1.11"/>
        <path fill="#A1A19F" d="M20.556 12.016a93.297 93.297 0 0 1-.168-.262c.12-.28.307-.203.48-.206l-.312.468z"/>
        <path fill="#999997" d="M20.956 11.651c.161-.23.321-.274.48.005l-.011.282-.47-.287"/>
        <path fill="#8C695E" d="M20.398 12.887l.179-.281c.143.09.256.22.3.444-.175.032-.355.095-.48-.163"/>
        <path fill="#8F8F8D" d="M25.038 11.588c.155-.285.315-.297.48-.03l-.118.283-.362-.253"/>
        <path fill="#8C695E" d="M22.176 12.15c0 .508-.571.919-1.276.919-.705 0-1.276-.411-1.276-.918 0-.508.571-.918 1.276-.918.705 0 1.276.41 1.276.918M26.636 12.15c0 .508-.571.919-1.276.919-.705 0-1.276-.411-1.276-.918 0-.508.571-.918 1.276-.918.705 0 1.276.41 1.276.918"/>
        <path fill="#FFF" d="M22.088 12.084s-.308-.606-1.003-.628c-.695-.021-1.049.5-1.049.684 0 .185.235.64 1.026.64s1.026-.48 1.026-.696"/>
        <path fill="#000" d="M22.088 12.084a.575.575 0 0 1-.09.318.816.816 0 0 1-.234.249c-.199.121-.43.167-.655.172a1.499 1.499 0 0 1-.666-.12c-.207-.095-.395-.268-.446-.507a.28.28 0 0 1-.001-.097.427.427 0 0 1 .027-.087.738.738 0 0 1 .087-.151 1.076 1.076 0 0 1 .553-.39c.054-.02.11-.03.166-.042.057-.006.114-.017.171-.016.114-.007.229.01.34.034.111.03.219.073.317.132a1.27 1.27 0 0 1 .43.505m0 0a1.324 1.324 0 0 0-.476-.429 1.18 1.18 0 0 0-.292-.122 1.183 1.183 0 0 0-.316-.031c-.054-.002-.106.01-.159.014-.052.012-.104.02-.154.039a1.007 1.007 0 0 0-.508.358.652.652 0 0 0-.076.132.34.34 0 0 0-.022.07.193.193 0 0 0 .001.066.551.551 0 0 0 .142.263c.07.075.158.136.254.18.192.087.41.117.625.11.215-.004.431-.048.61-.158a.682.682 0 0 0 .372-.492"/>
        <path fill="#34332F" d="M21.515 12.093c0 .334-.22.605-.49.605-.272 0-.492-.271-.492-.605 0-.334.22-.605.491-.605s.491.271.491.605"/>
        <path fill="#FFF" d="M21.58 12.056c.133 0 .24.106.24.237a.239.239 0 0 1-.24.238.239.239 0 0 1-.24-.238c0-.13.108-.237.24-.237M24.283 12.084s.323-.606 1.053-.628c.73-.021 1.1.5 1.1.684 0 .185-.246.64-1.076.64-.83 0-1.077-.48-1.077-.696"/>
        <path fill="#000" d="M24.283 12.084c.033.227.205.402.397.497.19.107.413.15.635.154.223.006.448-.024.65-.109a.878.878 0 0 0 .268-.178.55.55 0 0 0 .154-.267.184.184 0 0 0 .002-.068.358.358 0 0 0-.024-.07.642.642 0 0 0-.084-.135 1.07 1.07 0 0 0-.537-.355c-.052-.019-.106-.026-.16-.038-.055-.004-.11-.015-.165-.013-.11-.007-.22.01-.327.03a1.293 1.293 0 0 0-.305.12 1.359 1.359 0 0 0-.504.432m0 0a1.35 1.35 0 0 1 .459-.51c.103-.056.215-.097.33-.128.115-.022.233-.04.35-.033.059-.001.117.01.176.015.058.012.116.02.172.04a1.151 1.151 0 0 1 .582.386c.036.046.07.097.094.153a.446.446 0 0 1 .03.09.268.268 0 0 1 0 .1c-.057.248-.261.417-.475.51a1.65 1.65 0 0 1-.688.116 1.435 1.435 0 0 1-.678-.166.878.878 0 0 1-.25-.247.567.567 0 0 1-.102-.326"/>
        <path fill="#34332F" d="M25.813 12.093c0 .334-.22.605-.49.605-.272 0-.492-.271-.492-.605 0-.334.22-.605.491-.605s.491.271.491.605"/>
        <path fill="#FFF" d="M25.879 12.056c.132 0 .24.106.24.237a.239.239 0 0 1-.24.238.239.239 0 0 1-.24-.238c0-.13.107-.237.24-.237"/>
        <path fill="#91837E" d="M18.518 11.063c-.032.359-.024.714.023 1.06.04.347.126.684.24 1.006l.02.06c.008.01.01.02.019.03a.346.346 0 0 0 .056.065.883.883 0 0 0 .171.125c.135.076.29.137.45.187.322.098.664.16 1.007.19.343.033.69.035 1.023-.005a2.22 2.22 0 0 0 .47-.106.834.834 0 0 0 .348-.244c.09-.112.156-.256.2-.417.046-.16.075-.332.095-.506.047-.348.064-.707.1-1.067.072.355.12.711.14 1.077.006.183.002.37-.023.56-.022.19-.087.388-.201.57a1.153 1.153 0 0 1-.486.416c-.19.09-.384.132-.574.17a4.44 4.44 0 0 1-1.137.033 4.599 4.599 0 0 1-1.11-.24 2.46 2.46 0 0 1-.532-.26 1.205 1.205 0 0 1-.245-.215.736.736 0 0 1-.1-.153c-.015-.028-.025-.062-.037-.092l-.016-.07a3.834 3.834 0 0 1-.116-1.104c.019-.367.078-.733.215-1.07M23.684 11.336a4.91 4.91 0 0 0 .59 2.066c.047.073.194.15.35.195.157.047.33.076.504.094.35.036.711.032 1.068.003a5.837 5.837 0 0 0 .79-.121l.128-.032c.036-.013.075-.02.109-.036.286-.105.507-.35.64-.659.132-.308.19-.664.192-1.022a4.004 4.004 0 0 0-.139-1.084c.191.323.311.69.37 1.068.054.378.052.778-.074 1.166a1.656 1.656 0 0 1-.292.551 1.53 1.53 0 0 1-.234.229c-.09.064-.184.124-.286.167-.05.024-.102.04-.154.059-.047.014-.095.03-.142.042a4.732 4.732 0 0 1-.866.151 5.18 5.18 0 0 1-1.17-.025 2.947 2.947 0 0 1-.587-.145 1.507 1.507 0 0 1-.293-.146.735.735 0 0 1-.257-.278 3.884 3.884 0 0 1-.302-1.116c-.038-.379-.035-.763.055-1.127"/>
    </g>
</svg>
