<svg xmlns="http://www.w3.org/2000/svg" xmlns:xlink="http://www.w3.org/1999/xlink" width="24" height="24" viewBox="0 0 24 24">
    <defs>
        <path id="a" d="M0 0h24v24H0z"/>
        <path id="b" d="M23.156 11.626L11.516 0H1.44C.645 0 0 .644 0 1.438v10.065l11.64 11.625a2.882 2.882 0 0 0 4.073 0l7.443-7.435a2.874 2.874 0 0 0 0-4.067zM3.53 4.936a1.41 1.41 0 1 1-.001-2.822 1.41 1.41 0 0 1 .001 2.821zm13.757 9.945l-1.883.504-.505 1.88-1.883-.503-1.379 1.377-1.379-1.377-1.883.504-.505-1.881-1.883-.504L6.491 13l-1.379-1.378 1.379-1.377-.505-1.88 1.883-.505.505-1.88 1.883.503 1.38-1.377 1.378 1.377 1.883-.504.505 1.881 1.883.504-.504 1.881 1.378 1.377L16.781 13l.505 1.88z"/>
    </defs>
    <g fill="none" fill-rule="evenodd">
        <use fill="#CD3C14" fill-rule="nonzero" xlink:href="#b"/>
    </g>
</svg>
