<svg xmlns="http://www.w3.org/2000/svg" xmlns:xlink="http://www.w3.org/1999/xlink" width="16" height="24" viewBox="0 0 16 24">
    <defs>
        <path id="a" d="M0 0h24v24H0z"/>
        <path id="b" d="M12 10.165c2.82 0 5.105-2.276 5.105-5.083C17.105 2.275 14.82 0 12 0 9.18 0 6.895 2.275 6.895 5.082S9.18 10.165 12 10.165zm4.473-.356a6.545 6.545 0 0 1-8.946 0 6.35 6.35 0 0 0-3.325 5.438H4.2v5.93A2.83 2.83 0 0 0 7.036 24H19.8v-8.612a6.347 6.347 0 0 0-3.327-5.579zm-.094 3.211c.668 0 1.21.54 1.21 1.205s-.542 1.205-1.21 1.205c-.669 0-1.21-.54-1.21-1.205s.541-1.205 1.21-1.205zm1.974 9.568h-3.602v-.407l.085-.003c.249-.008.433-.078.549-.208.04-.048.11-.208.11-.75v-3.608c0-.514-.072-.708-.132-.78-.085-.102-.264-.162-.53-.178l-.083-.004v-.415h2.808v4.987c0 .514.135.708.195.78.085.101.236.161.507.177l.092.005.001.404z"/>
    </defs>
    <g fill="none" fill-rule="evenodd" transform="translate(-4)">
        <use fill="#CD3C14" fill-rule="nonzero" xlink:href="#b"/>
    </g>
</svg>
