<svg xmlns="http://www.w3.org/2000/svg" xmlns:xlink="http://www.w3.org/1999/xlink" width="44" height="44" viewBox="0 0 44 44">
    <defs>
        <path id="a" d="M43.152 16.069a1.293 1.293 0 0 0-1.678-.875 1.293 1.293 0 0 0-.816 1.567c.474 1.699.713 3.454.712 5.217 0 12.473-11.776 22.195-24.818 18.656C10.846 39.083 4.867 33.11 3.32 27.402-.218 14.362 9.505 2.585 21.978 2.585c1.771-.001 3.535.24 5.241.717a1.293 1.293 0 1 0 .694-2.49A21.993 21.993 0 0 0 21.978 0C7.928 0-3.043 13.184.763 27.856 2.495 34.536 9.42 41.461 16.1 43.193 30.77 47 43.956 36.028 43.956 21.978a21.994 21.994 0 0 0-.804-5.91zm-6.59-7.383a1.293 1.293 0 1 0 0-2.585 1.293 1.293 0 0 0 0 2.585zm-4.033-3.154a1.293 1.293 0 1 0 0-2.585 1.293 1.293 0 0 0 0 2.585zm7.239 7.239a1.293 1.293 0 1 0 0-2.585 1.293 1.293 0 0 0 0 2.585zM26.56 27.36c-1.1 1.097-3.878-1.193-6.278-3.59-2.4-2.397-4.693-5.17-3.595-6.269 2.757-2.753 2.942-2.539.155-6.002-2.787-3.462-2.676-2.84-6.17.719-1.836 1.976-.09 8.301 6.387 14.77 6.477 6.47 12.98 8.133 14.791 6.377 3.723-3.692 4.015-3.486.719-6.16-3.466-2.783-3.265-2.585-6.01.156z"/>
    </defs>
    <g fill="none" fill-rule="evenodd">
        <mask id="b" fill="#fff">
            <use xlink:href="#a"/>
        </mask>
        <g fill="#000" mask="url(#b)">
            <path d="M0 0h44v44H0z"/>
        </g>
    </g>
</svg>
