<svg xmlns="http://www.w3.org/2000/svg" xmlns:xlink="http://www.w3.org/1999/xlink" width="44" height="24" viewBox="0 0 44 24">
    <defs>
        <path id="a" d="M17.61 2.326H4.7c-1.57 0-2.84 1.32-2.84 2.948S3.13 8.222 4.7 8.222h6.053L.883 18.465a3.024 3.024 0 0 0-.75 2.855c.262 1.022 1.031 1.82 2.017 2.092a2.771 2.771 0 0 0 2.75-.778l9.87-10.243v6.282c0 1.628 1.272 2.948 2.84 2.948 1.569 0 2.84-1.32 2.84-2.948V5.274c0-1.628-1.271-2.948-2.84-2.948zm25.506-1.013a2.768 2.768 0 0 0-4.016 0l-9.87 10.243V5.274c0-1.628-1.272-2.948-2.84-2.948-1.569 0-2.84 1.32-2.84 2.948v13.4c0 1.627 1.271 2.947 2.84 2.947H39.3c1.57 0 2.84-1.32 2.84-2.948s-1.27-2.948-2.84-2.948h-6.053l9.87-10.243a3.027 3.027 0 0 0 0-4.169z"/>
    </defs>
    <g fill="none" fill-rule="evenodd">
        <mask id="b" fill="#fff">
            <use xlink:href="#a"/>
        </mask>
        <g fill="#FFF" mask="url(#b)">
            <path d="M0-10h44v44H0z"/>
        </g>
    </g>
</svg>
